<?xml version="1.0" standalone="no"?>
<!DOCTYPE svg PUBLIC "-//W3C//DTD SVG 20010904//EN"
 "http://www.w3.org/TR/2001/REC-SVG-20010904/DTD/svg10.dtd">
<svg version="1.0" xmlns="http://www.w3.org/2000/svg"
 width="612.000000pt" height="612.000000pt" viewBox="0 0 612.000000 612.000000"
 preserveAspectRatio="xMidYMid meet">
<metadata>
Created by potrace 1.14, written by Peter Selinger 2001-2017
</metadata>
<g transform="translate(0.000000,612.000000) scale(0.100000,-0.100000)"
fill="#000000" stroke="none">
<path d="M2775 5269 c-22 -4 -51 -10 -65 -12 -14 -3 -52 -15 -85 -27 -33 -11
-67 -23 -75 -25 -8 -2 -69 -22 -135 -46 -114 -39 -649 -223 -800 -274 -146
-49 -520 -177 -790 -270 -154 -53 -312 -107 -351 -120 -210 -69 -329 -164
-410 -324 -65 -130 -63 -96 -61 -1135 l2 -941 27 -74 c53 -145 149 -257 288
-337 36 -21 84 -38 440 -159 118 -41 361 -124 540 -185 179 -61 350 -120 380
-130 30 -10 208 -70 395 -135 711 -244 658 -228 775 -231 129 -3 131 -3 575
150 187 64 372 128 410 140 39 13 214 73 390 134 176 60 363 124 415 141 52
18 104 36 115 41 16 7 207 71 225 75 3 1 12 5 20 8 8 3 87 30 175 60 196 67
219 76 287 120 109 70 202 192 245 321 l26 81 2 675 1 674 54 38 c135 91 250
253 301 419 33 108 33 303 0 409 -41 133 -96 228 -189 324 -273 283 -717 305
-1026 50 l-66 -54 -87 29 c-217 74 -732 250 -1128 386 -449 154 -535 182 -585
196 -56 14 -181 19 -235 8z"/>
</g>
</svg>
